<mxfile host="app.diagrams.net" agent="Mozilla/5.0 (Windows NT 10.0; Win64; x64) AppleWebKit/537.36 (KHTML, like Gecko) Chrome/127.0.0.0 Safari/537.36" version="26.2.12" pages="2">
  <diagram id="C5RBs43oDa-KdzZeNtuy" name="dpad合同文本">
    <mxGraphModel dx="1428" dy="1954" grid="1" gridSize="10" guides="1" tooltips="1" connect="1" arrows="1" fold="1" page="1" pageScale="1" pageWidth="827" pageHeight="1169" math="0" shadow="0">
      <root>
        <mxCell id="WIyWlLk6GJQsqaUBKTNV-0" />
        <mxCell id="WIyWlLk6GJQsqaUBKTNV-1" parent="WIyWlLk6GJQsqaUBKTNV-0" />
        <mxCell id="WWUdBNbwMEwNh_3w9zE5-56" style="edgeStyle=orthogonalEdgeStyle;rounded=0;orthogonalLoop=1;jettySize=auto;html=1;exitX=1;exitY=0;exitDx=0;exitDy=0;entryX=0;entryY=0.5;entryDx=0;entryDy=0;" parent="WIyWlLk6GJQsqaUBKTNV-1" source="WWUdBNbwMEwNh_3w9zE5-5" target="WWUdBNbwMEwNh_3w9zE5-54" edge="1">
          <mxGeometry relative="1" as="geometry" />
        </mxCell>
        <mxCell id="WWUdBNbwMEwNh_3w9zE5-57" value="&lt;b&gt;&lt;font style=&quot;color: rgb(255, 0, 0);&quot;&gt;合同文本id 一对多&lt;/font&gt;&lt;/b&gt;" style="edgeLabel;html=1;align=center;verticalAlign=middle;resizable=0;points=[];" parent="WWUdBNbwMEwNh_3w9zE5-56" vertex="1" connectable="0">
          <mxGeometry x="0.3533" y="1" relative="1" as="geometry">
            <mxPoint as="offset" />
          </mxGeometry>
        </mxCell>
        <mxCell id="WWUdBNbwMEwNh_3w9zE5-5" value="ods_dp5008&#xa;dpad_合同文本表&#xa;rhdk_sso.t_contract_files" style="swimlane;startSize=60;" parent="WIyWlLk6GJQsqaUBKTNV-1" vertex="1">
          <mxGeometry x="280" y="225" width="210" height="190" as="geometry" />
        </mxCell>
        <mxCell id="WWUdBNbwMEwNh_3w9zE5-8" value="&lt;div&gt;id 自增id F1&lt;/div&gt;contract_id 合同id F2&lt;div&gt;org_id 公司id F13&amp;nbsp;&lt;/div&gt;&lt;div&gt;base_id 合同文本用途id F3&lt;/div&gt;" style="text;html=1;align=center;verticalAlign=middle;resizable=0;points=[];autosize=1;strokeColor=none;fillColor=none;" parent="WWUdBNbwMEwNh_3w9zE5-5" vertex="1">
          <mxGeometry x="35" y="55" width="170" height="70" as="geometry" />
        </mxCell>
        <mxCell id="WWUdBNbwMEwNh_3w9zE5-22" style="edgeStyle=orthogonalEdgeStyle;rounded=0;orthogonalLoop=1;jettySize=auto;html=1;exitX=1;exitY=0.25;exitDx=0;exitDy=0;" parent="WIyWlLk6GJQsqaUBKTNV-1" source="WWUdBNbwMEwNh_3w9zE5-6" target="WWUdBNbwMEwNh_3w9zE5-5" edge="1">
          <mxGeometry relative="1" as="geometry" />
        </mxCell>
        <mxCell id="WWUdBNbwMEwNh_3w9zE5-23" value="&lt;b&gt;&lt;font style=&quot;color: rgb(204, 0, 0);&quot;&gt;合同id 一对多&lt;/font&gt;&lt;/b&gt;" style="edgeLabel;html=1;align=center;verticalAlign=middle;resizable=0;points=[];" parent="WWUdBNbwMEwNh_3w9zE5-22" vertex="1" connectable="0">
          <mxGeometry x="-0.3405" y="-2" relative="1" as="geometry">
            <mxPoint as="offset" />
          </mxGeometry>
        </mxCell>
        <mxCell id="WWUdBNbwMEwNh_3w9zE5-6" value="ods_dp5004 &#xa;dpad_合同表 &#xa;rhdk_sso.t_contract" style="swimlane;startSize=50;" parent="WIyWlLk6GJQsqaUBKTNV-1" vertex="1">
          <mxGeometry x="40" y="220" width="200" height="190" as="geometry" />
        </mxCell>
        <mxCell id="WWUdBNbwMEwNh_3w9zE5-7" value="id 自增id F1&lt;div&gt;motion_id 议案id F120&lt;/div&gt;&lt;div&gt;contract_supplier 供应商 F130&lt;/div&gt;" style="text;html=1;align=center;verticalAlign=middle;resizable=0;points=[];autosize=1;strokeColor=none;fillColor=none;" parent="WWUdBNbwMEwNh_3w9zE5-6" vertex="1">
          <mxGeometry x="20" y="53" width="180" height="60" as="geometry" />
        </mxCell>
        <mxCell id="WWUdBNbwMEwNh_3w9zE5-20" style="edgeStyle=orthogonalEdgeStyle;rounded=0;orthogonalLoop=1;jettySize=auto;html=1;exitX=0;exitY=0;exitDx=0;exitDy=0;entryX=1;entryY=0;entryDx=0;entryDy=0;fillColor=#d80073;strokeColor=#A50040;" parent="WIyWlLk6GJQsqaUBKTNV-1" source="WWUdBNbwMEwNh_3w9zE5-9" target="WWUdBNbwMEwNh_3w9zE5-6" edge="1">
          <mxGeometry relative="1" as="geometry" />
        </mxCell>
        <mxCell id="WWUdBNbwMEwNh_3w9zE5-21" value="&lt;b&gt;&lt;font style=&quot;color: rgb(255, 0, 0);&quot;&gt;议案id 一对多&lt;/font&gt;&lt;/b&gt;" style="edgeLabel;html=1;align=center;verticalAlign=middle;resizable=0;points=[];" parent="WWUdBNbwMEwNh_3w9zE5-20" vertex="1" connectable="0">
          <mxGeometry x="-0.1079" relative="1" as="geometry">
            <mxPoint as="offset" />
          </mxGeometry>
        </mxCell>
        <mxCell id="WWUdBNbwMEwNh_3w9zE5-9" value="ods_dp5119 &#xa;议案表 &#xa;rhdk_sso.t_motion" style="swimlane;startSize=55;" parent="WIyWlLk6GJQsqaUBKTNV-1" vertex="1">
          <mxGeometry x="538" y="225" width="200" height="200" as="geometry" />
        </mxCell>
        <mxCell id="WWUdBNbwMEwNh_3w9zE5-10" value="id 自增id F1&lt;div&gt;project_manager 项目经理id F13&lt;/div&gt;&lt;div&gt;department_id 部门id F25&lt;/div&gt;" style="text;html=1;align=center;verticalAlign=middle;resizable=0;points=[];autosize=1;strokeColor=none;fillColor=none;" parent="WWUdBNbwMEwNh_3w9zE5-9" vertex="1">
          <mxGeometry y="55" width="200" height="60" as="geometry" />
        </mxCell>
        <mxCell id="WWUdBNbwMEwNh_3w9zE5-11" value="ods_dp5206 &#xa;变更记录表 &#xa;rhdk_sso.t_change" style="swimlane;startSize=50;" parent="WIyWlLk6GJQsqaUBKTNV-1" vertex="1">
          <mxGeometry x="40" y="450" width="200" height="200" as="geometry" />
        </mxCell>
        <mxCell id="WWUdBNbwMEwNh_3w9zE5-12" value="id 自增id F1&lt;div&gt;business_id 主单据id F5&amp;nbsp;&lt;/div&gt;&lt;div&gt;change_status 变更状态 F13&lt;/div&gt;&lt;div&gt;change_tyoe 变更维度&amp;nbsp; F4&lt;/div&gt;" style="text;html=1;align=center;verticalAlign=middle;resizable=0;points=[];autosize=1;strokeColor=none;fillColor=none;" parent="WWUdBNbwMEwNh_3w9zE5-11" vertex="1">
          <mxGeometry y="65" width="180" height="70" as="geometry" />
        </mxCell>
        <mxCell id="WWUdBNbwMEwNh_3w9zE5-25" style="edgeStyle=orthogonalEdgeStyle;rounded=0;orthogonalLoop=1;jettySize=auto;html=1;exitX=0;exitY=0.75;exitDx=0;exitDy=0;entryX=0.615;entryY=-0.005;entryDx=0;entryDy=0;entryPerimeter=0;" parent="WIyWlLk6GJQsqaUBKTNV-1" source="WWUdBNbwMEwNh_3w9zE5-9" target="WWUdBNbwMEwNh_3w9zE5-11" edge="1">
          <mxGeometry relative="1" as="geometry" />
        </mxCell>
        <mxCell id="WWUdBNbwMEwNh_3w9zE5-26" value="&lt;font style=&quot;color: rgb(255, 0, 0);&quot;&gt;&lt;b&gt;议案id 关联 business_id 一对多&lt;/b&gt;&lt;/font&gt;" style="edgeLabel;html=1;align=center;verticalAlign=middle;resizable=0;points=[];" parent="WWUdBNbwMEwNh_3w9zE5-25" vertex="1" connectable="0">
          <mxGeometry x="-0.1091" relative="1" as="geometry">
            <mxPoint as="offset" />
          </mxGeometry>
        </mxCell>
        <mxCell id="WWUdBNbwMEwNh_3w9zE5-32" style="edgeStyle=orthogonalEdgeStyle;rounded=0;orthogonalLoop=1;jettySize=auto;html=1;exitX=1;exitY=0;exitDx=0;exitDy=0;entryX=0;entryY=1;entryDx=0;entryDy=0;" parent="WIyWlLk6GJQsqaUBKTNV-1" source="WWUdBNbwMEwNh_3w9zE5-27" target="WWUdBNbwMEwNh_3w9zE5-9" edge="1">
          <mxGeometry relative="1" as="geometry">
            <Array as="points">
              <mxPoint x="390" y="450" />
              <mxPoint x="390" y="430" />
              <mxPoint x="509" y="430" />
              <mxPoint x="509" y="445" />
              <mxPoint x="538" y="445" />
            </Array>
          </mxGeometry>
        </mxCell>
        <mxCell id="WWUdBNbwMEwNh_3w9zE5-33" value="&lt;font style=&quot;color: rgb(255, 0, 0);&quot;&gt;&lt;b&gt;id 关联 项目经理id 一对多&lt;/b&gt;&lt;/font&gt;" style="edgeLabel;html=1;align=center;verticalAlign=middle;resizable=0;points=[];" parent="WWUdBNbwMEwNh_3w9zE5-32" vertex="1" connectable="0">
          <mxGeometry x="-0.3451" relative="1" as="geometry">
            <mxPoint x="60" y="-14" as="offset" />
          </mxGeometry>
        </mxCell>
        <mxCell id="WWUdBNbwMEwNh_3w9zE5-27" value="ods_dp5038 &#xa;用户信息表 &#xa;sys_manager.user" style="swimlane;startSize=50;" parent="WIyWlLk6GJQsqaUBKTNV-1" vertex="1">
          <mxGeometry x="280" y="450" width="200" height="200" as="geometry" />
        </mxCell>
        <mxCell id="WWUdBNbwMEwNh_3w9zE5-28" value="id 自增id F1" style="text;html=1;align=center;verticalAlign=middle;resizable=0;points=[];autosize=1;strokeColor=none;fillColor=none;" parent="WIyWlLk6GJQsqaUBKTNV-1" vertex="1">
          <mxGeometry x="325" y="508" width="90" height="30" as="geometry" />
        </mxCell>
        <mxCell id="WWUdBNbwMEwNh_3w9zE5-35" value="ods_dp5081 &#xa;公司组织信息表 &#xa;sys_manager.organization" style="swimlane;startSize=60;" parent="WIyWlLk6GJQsqaUBKTNV-1" vertex="1">
          <mxGeometry x="560" y="450" width="190" height="200" as="geometry" />
        </mxCell>
        <mxCell id="WWUdBNbwMEwNh_3w9zE5-36" value="id 自增id F1" style="text;html=1;align=center;verticalAlign=middle;resizable=0;points=[];autosize=1;strokeColor=none;fillColor=none;" parent="WIyWlLk6GJQsqaUBKTNV-1" vertex="1">
          <mxGeometry x="605" y="508" width="90" height="30" as="geometry" />
        </mxCell>
        <mxCell id="WWUdBNbwMEwNh_3w9zE5-37" style="edgeStyle=orthogonalEdgeStyle;rounded=0;orthogonalLoop=1;jettySize=auto;html=1;exitX=1;exitY=0;exitDx=0;exitDy=0;entryX=1;entryY=0.25;entryDx=0;entryDy=0;" parent="WIyWlLk6GJQsqaUBKTNV-1" source="WWUdBNbwMEwNh_3w9zE5-35" target="WWUdBNbwMEwNh_3w9zE5-9" edge="1">
          <mxGeometry relative="1" as="geometry">
            <mxPoint x="670" y="430" as="targetPoint" />
          </mxGeometry>
        </mxCell>
        <mxCell id="WWUdBNbwMEwNh_3w9zE5-38" value="&lt;font style=&quot;color: rgb(255, 0, 0);&quot;&gt;&lt;b&gt;id 关联 部门id 一对多&lt;/b&gt;&lt;/font&gt;" style="edgeLabel;html=1;align=center;verticalAlign=middle;resizable=0;points=[];" parent="WWUdBNbwMEwNh_3w9zE5-37" vertex="1" connectable="0">
          <mxGeometry x="-0.3225" y="2" relative="1" as="geometry">
            <mxPoint as="offset" />
          </mxGeometry>
        </mxCell>
        <mxCell id="WWUdBNbwMEwNh_3w9zE5-41" style="edgeStyle=orthogonalEdgeStyle;rounded=0;orthogonalLoop=1;jettySize=auto;html=1;exitX=0.5;exitY=1;exitDx=0;exitDy=0;entryX=0.5;entryY=0;entryDx=0;entryDy=0;" parent="WIyWlLk6GJQsqaUBKTNV-1" source="WWUdBNbwMEwNh_3w9zE5-39" target="WWUdBNbwMEwNh_3w9zE5-5" edge="1">
          <mxGeometry relative="1" as="geometry" />
        </mxCell>
        <mxCell id="WWUdBNbwMEwNh_3w9zE5-42" value="&lt;font style=&quot;color: rgb(255, 0, 0);&quot;&gt;&lt;b&gt;id 关联 公司id 一对多&lt;/b&gt;&lt;/font&gt;" style="edgeLabel;html=1;align=center;verticalAlign=middle;resizable=0;points=[];" parent="WWUdBNbwMEwNh_3w9zE5-41" vertex="1" connectable="0">
          <mxGeometry x="-0.675" relative="1" as="geometry">
            <mxPoint as="offset" />
          </mxGeometry>
        </mxCell>
        <mxCell id="WWUdBNbwMEwNh_3w9zE5-39" value="ods_dp5040 &#xa;公司信息表 &#xa;sys_manager.company" style="swimlane;startSize=50;" parent="WIyWlLk6GJQsqaUBKTNV-1" vertex="1">
          <mxGeometry x="280" y="-50" width="200" height="200" as="geometry" />
        </mxCell>
        <mxCell id="WWUdBNbwMEwNh_3w9zE5-40" value="id&amp;nbsp; 自增id F1" style="text;html=1;align=center;verticalAlign=middle;resizable=0;points=[];autosize=1;strokeColor=none;fillColor=none;" parent="WIyWlLk6GJQsqaUBKTNV-1" vertex="1">
          <mxGeometry x="325" y="-2" width="90" height="30" as="geometry" />
        </mxCell>
        <mxCell id="WWUdBNbwMEwNh_3w9zE5-47" style="edgeStyle=orthogonalEdgeStyle;rounded=0;orthogonalLoop=1;jettySize=auto;html=1;exitX=0.5;exitY=1;exitDx=0;exitDy=0;" parent="WIyWlLk6GJQsqaUBKTNV-1" source="WWUdBNbwMEwNh_3w9zE5-43" target="WWUdBNbwMEwNh_3w9zE5-6" edge="1">
          <mxGeometry relative="1" as="geometry" />
        </mxCell>
        <mxCell id="WWUdBNbwMEwNh_3w9zE5-49" value="&lt;b&gt;&lt;font style=&quot;color: rgb(255, 0, 0);&quot;&gt;id 关联 供应商&lt;/font&gt;&lt;/b&gt;" style="edgeLabel;html=1;align=center;verticalAlign=middle;resizable=0;points=[];" parent="WWUdBNbwMEwNh_3w9zE5-47" vertex="1" connectable="0">
          <mxGeometry x="-0.1111" y="-1" relative="1" as="geometry">
            <mxPoint as="offset" />
          </mxGeometry>
        </mxCell>
        <mxCell id="WWUdBNbwMEwNh_3w9zE5-43" value="ods_dp5061 &#xa;客户管理表 &#xa;rhdk_sso.t_customer" style="swimlane;startSize=40;" parent="WIyWlLk6GJQsqaUBKTNV-1" vertex="1">
          <mxGeometry x="40" y="-50" width="200" height="180" as="geometry" />
        </mxCell>
        <mxCell id="WWUdBNbwMEwNh_3w9zE5-44" value="id 自增id F1" style="text;html=1;align=center;verticalAlign=middle;resizable=0;points=[];autosize=1;strokeColor=none;fillColor=none;" parent="WIyWlLk6GJQsqaUBKTNV-1" vertex="1">
          <mxGeometry x="75" y="-2" width="90" height="30" as="geometry" />
        </mxCell>
        <mxCell id="WWUdBNbwMEwNh_3w9zE5-50" value="ods_dp5158 &#xa;合同基础数据表 &#xa;rhdk_sso.t_contract_base" style="swimlane;startSize=50;" parent="WIyWlLk6GJQsqaUBKTNV-1" vertex="1">
          <mxGeometry x="627" y="-60" width="200" height="200" as="geometry" />
        </mxCell>
        <mxCell id="WWUdBNbwMEwNh_3w9zE5-51" value="id 自增id F1" style="text;html=1;align=center;verticalAlign=middle;resizable=0;points=[];autosize=1;strokeColor=none;fillColor=none;" parent="WIyWlLk6GJQsqaUBKTNV-1" vertex="1">
          <mxGeometry x="675" y="-2" width="90" height="30" as="geometry" />
        </mxCell>
        <mxCell id="WWUdBNbwMEwNh_3w9zE5-52" style="edgeStyle=orthogonalEdgeStyle;rounded=0;orthogonalLoop=1;jettySize=auto;html=1;exitX=0;exitY=1;exitDx=0;exitDy=0;entryX=0.895;entryY=-0.005;entryDx=0;entryDy=0;entryPerimeter=0;" parent="WIyWlLk6GJQsqaUBKTNV-1" source="WWUdBNbwMEwNh_3w9zE5-50" target="WWUdBNbwMEwNh_3w9zE5-5" edge="1">
          <mxGeometry relative="1" as="geometry" />
        </mxCell>
        <mxCell id="WWUdBNbwMEwNh_3w9zE5-53" value="&lt;b&gt;&lt;font style=&quot;color: rgb(255, 0, 0);&quot;&gt;id 关联 base_id 一对多&lt;/font&gt;&lt;/b&gt;" style="edgeLabel;html=1;align=center;verticalAlign=middle;resizable=0;points=[];" parent="WWUdBNbwMEwNh_3w9zE5-52" vertex="1" connectable="0">
          <mxGeometry x="-0.6544" relative="1" as="geometry">
            <mxPoint as="offset" />
          </mxGeometry>
        </mxCell>
        <mxCell id="WWUdBNbwMEwNh_3w9zE5-54" value="ods_dp5159 &#xa;合同文本签署信息表&#xa; rhdk_sso.t_contract_files_signatory" style="swimlane;startSize=60;" parent="WIyWlLk6GJQsqaUBKTNV-1" vertex="1">
          <mxGeometry x="620" y="-280" width="200" height="200" as="geometry" />
        </mxCell>
        <mxCell id="WWUdBNbwMEwNh_3w9zE5-55" value="id 自增id F1&lt;div&gt;contract_files_id 合同文本id F2&lt;/div&gt;" style="text;html=1;align=center;verticalAlign=middle;resizable=0;points=[];autosize=1;strokeColor=none;fillColor=none;" parent="WWUdBNbwMEwNh_3w9zE5-54" vertex="1">
          <mxGeometry x="5" y="70" width="190" height="40" as="geometry" />
        </mxCell>
      </root>
    </mxGraphModel>
  </diagram>
  <diagram id="HSNDklsdBeISyrqnV90w" name="销售系统合同文本">
    <mxGraphModel dx="1428" dy="1954" grid="1" gridSize="10" guides="1" tooltips="1" connect="1" arrows="1" fold="1" page="1" pageScale="1" pageWidth="827" pageHeight="1169" math="0" shadow="0">
      <root>
        <mxCell id="0" />
        <mxCell id="1" parent="0" />
        <mxCell id="zOYH1V0sEY3uDKR9j2VB-4" style="edgeStyle=orthogonalEdgeStyle;rounded=0;orthogonalLoop=1;jettySize=auto;html=1;entryX=0.5;entryY=1;entryDx=0;entryDy=0;" edge="1" parent="1" source="_CwgOIHjb96wmUApnjY6-1" target="zOYH1V0sEY3uDKR9j2VB-2">
          <mxGeometry relative="1" as="geometry" />
        </mxCell>
        <mxCell id="zOYH1V0sEY3uDKR9j2VB-5" value="&lt;font style=&quot;color: rgb(255, 0, 0);&quot;&gt;&lt;b&gt;F1 关联 F4 一对多&lt;/b&gt;&lt;/font&gt;" style="edgeLabel;html=1;align=center;verticalAlign=middle;resizable=0;points=[];" vertex="1" connectable="0" parent="zOYH1V0sEY3uDKR9j2VB-4">
          <mxGeometry x="0.4102" y="-1" relative="1" as="geometry">
            <mxPoint as="offset" />
          </mxGeometry>
        </mxCell>
        <mxCell id="zOYH1V0sEY3uDKR9j2VB-8" style="edgeStyle=orthogonalEdgeStyle;rounded=0;orthogonalLoop=1;jettySize=auto;html=1;exitX=0.75;exitY=0;exitDx=0;exitDy=0;entryX=0;entryY=0.5;entryDx=0;entryDy=0;" edge="1" parent="1" source="_CwgOIHjb96wmUApnjY6-1" target="zOYH1V0sEY3uDKR9j2VB-6">
          <mxGeometry relative="1" as="geometry" />
        </mxCell>
        <mxCell id="zOYH1V0sEY3uDKR9j2VB-9" value="&lt;b&gt;&lt;font style=&quot;color: rgb(255, 0, 0);&quot;&gt;F4 关联 F1 多对一&lt;/font&gt;&lt;/b&gt;" style="edgeLabel;html=1;align=center;verticalAlign=middle;resizable=0;points=[];" vertex="1" connectable="0" parent="zOYH1V0sEY3uDKR9j2VB-8">
          <mxGeometry x="-0.395" relative="1" as="geometry">
            <mxPoint as="offset" />
          </mxGeometry>
        </mxCell>
        <mxCell id="zOYH1V0sEY3uDKR9j2VB-34" style="edgeStyle=orthogonalEdgeStyle;rounded=0;orthogonalLoop=1;jettySize=auto;html=1;exitX=0.5;exitY=0;exitDx=0;exitDy=0;" edge="1" parent="1" source="_CwgOIHjb96wmUApnjY6-1">
          <mxGeometry relative="1" as="geometry">
            <mxPoint x="414" y="210" as="targetPoint" />
          </mxGeometry>
        </mxCell>
        <mxCell id="zOYH1V0sEY3uDKR9j2VB-35" value="&lt;b&gt;&lt;font style=&quot;color: rgb(255, 0, 0);&quot;&gt;F4关联F1 多对一&lt;/font&gt;&lt;/b&gt;" style="edgeLabel;html=1;align=center;verticalAlign=middle;resizable=0;points=[];" vertex="1" connectable="0" parent="zOYH1V0sEY3uDKR9j2VB-34">
          <mxGeometry x="0.0706" relative="1" as="geometry">
            <mxPoint as="offset" />
          </mxGeometry>
        </mxCell>
        <mxCell id="zOYH1V0sEY3uDKR9j2VB-38" style="edgeStyle=orthogonalEdgeStyle;rounded=0;orthogonalLoop=1;jettySize=auto;html=1;exitX=0;exitY=1;exitDx=0;exitDy=0;entryX=0.5;entryY=0;entryDx=0;entryDy=0;" edge="1" parent="1" source="_CwgOIHjb96wmUApnjY6-1" target="zOYH1V0sEY3uDKR9j2VB-36">
          <mxGeometry relative="1" as="geometry" />
        </mxCell>
        <mxCell id="zOYH1V0sEY3uDKR9j2VB-39" value="&lt;b&gt;&lt;font style=&quot;color: rgb(255, 0, 0);&quot;&gt;F4关联F1 多对一&lt;/font&gt;&lt;/b&gt;" style="edgeLabel;html=1;align=center;verticalAlign=middle;resizable=0;points=[];" vertex="1" connectable="0" parent="zOYH1V0sEY3uDKR9j2VB-38">
          <mxGeometry x="0.1841" y="-2" relative="1" as="geometry">
            <mxPoint as="offset" />
          </mxGeometry>
        </mxCell>
        <mxCell id="zOYH1V0sEY3uDKR9j2VB-44" style="edgeStyle=orthogonalEdgeStyle;rounded=0;orthogonalLoop=1;jettySize=auto;html=1;exitX=0;exitY=0.25;exitDx=0;exitDy=0;entryX=1;entryY=1;entryDx=0;entryDy=0;" edge="1" parent="1" source="_CwgOIHjb96wmUApnjY6-1" target="zOYH1V0sEY3uDKR9j2VB-42">
          <mxGeometry relative="1" as="geometry" />
        </mxCell>
        <mxCell id="zOYH1V0sEY3uDKR9j2VB-45" value="&lt;b&gt;&lt;font style=&quot;color: rgb(255, 0, 0);&quot;&gt;F4关联F1 多对一&lt;/font&gt;&lt;/b&gt;" style="edgeLabel;html=1;align=center;verticalAlign=middle;resizable=0;points=[];" vertex="1" connectable="0" parent="zOYH1V0sEY3uDKR9j2VB-44">
          <mxGeometry x="0.6375" relative="1" as="geometry">
            <mxPoint y="1" as="offset" />
          </mxGeometry>
        </mxCell>
        <mxCell id="_CwgOIHjb96wmUApnjY6-1" value="ods_dp5209&#xa;合同文本表&#xa;sales.m_contract_text" style="swimlane;startSize=50;" vertex="1" parent="1">
          <mxGeometry x="291" y="280" width="245" height="230" as="geometry" />
        </mxCell>
        <mxCell id="zOYH1V0sEY3uDKR9j2VB-1" value="id 主键 F1&lt;div&gt;biz_id 业务id/订单id/提名信id/价格协议id F4&lt;/div&gt;" style="text;html=1;align=center;verticalAlign=middle;resizable=0;points=[];autosize=1;strokeColor=none;fillColor=none;" vertex="1" parent="_CwgOIHjb96wmUApnjY6-1">
          <mxGeometry x="-5" y="80" width="250" height="40" as="geometry" />
        </mxCell>
        <mxCell id="zOYH1V0sEY3uDKR9j2VB-2" value="ods_dp5210&#xa;归档资料表&#xa;sales.m_archive_text" style="swimlane;startSize=60;" vertex="1" parent="1">
          <mxGeometry x="20" y="280" width="200" height="200" as="geometry" />
        </mxCell>
        <mxCell id="zOYH1V0sEY3uDKR9j2VB-3" value="id 主键 F1&lt;div&gt;contract_text_id 关联合同文本id&amp;nbsp; F4&lt;/div&gt;" style="text;html=1;align=center;verticalAlign=middle;resizable=0;points=[];autosize=1;strokeColor=none;fillColor=none;" vertex="1" parent="zOYH1V0sEY3uDKR9j2VB-2">
          <mxGeometry x="-10" y="80" width="210" height="40" as="geometry" />
        </mxCell>
        <mxCell id="zOYH1V0sEY3uDKR9j2VB-16" style="edgeStyle=orthogonalEdgeStyle;rounded=0;orthogonalLoop=1;jettySize=auto;html=1;exitX=0.5;exitY=0;exitDx=0;exitDy=0;" edge="1" parent="1" source="zOYH1V0sEY3uDKR9j2VB-6">
          <mxGeometry relative="1" as="geometry">
            <mxPoint x="690" y="240" as="targetPoint" />
          </mxGeometry>
        </mxCell>
        <mxCell id="zOYH1V0sEY3uDKR9j2VB-17" value="&lt;b&gt;&lt;font style=&quot;color: rgb(255, 0, 0);&quot;&gt;F24关联F1 多对一&lt;/font&gt;&lt;/b&gt;" style="edgeLabel;html=1;align=center;verticalAlign=middle;resizable=0;points=[];" vertex="1" connectable="0" parent="zOYH1V0sEY3uDKR9j2VB-16">
          <mxGeometry x="0.0585" y="-3" relative="1" as="geometry">
            <mxPoint as="offset" />
          </mxGeometry>
        </mxCell>
        <mxCell id="zOYH1V0sEY3uDKR9j2VB-6" value="ods_dp5211&#xa;业务主表&#xa;sales.business" style="swimlane;startSize=50;" vertex="1" parent="1">
          <mxGeometry x="590" y="280" width="200" height="200" as="geometry" />
        </mxCell>
        <mxCell id="zOYH1V0sEY3uDKR9j2VB-7" value="id 主键 F1&lt;div&gt;decision_no 决策编号 F3&lt;/div&gt;&lt;div&gt;company_id 公司id F24&lt;/div&gt;" style="text;html=1;align=center;verticalAlign=middle;resizable=0;points=[];autosize=1;strokeColor=none;fillColor=none;" vertex="1" parent="zOYH1V0sEY3uDKR9j2VB-6">
          <mxGeometry x="20" y="50" width="160" height="60" as="geometry" />
        </mxCell>
        <mxCell id="zOYH1V0sEY3uDKR9j2VB-10" value="ods_dp5212&#xa;销售决策表&#xa;sales.decision" style="swimlane;startSize=50;" vertex="1" parent="1">
          <mxGeometry x="610" y="560" width="200" height="200" as="geometry" />
        </mxCell>
        <mxCell id="zOYH1V0sEY3uDKR9j2VB-11" value="id 主键 F1&lt;div&gt;decision_no 销售决策编码 F2&lt;/div&gt;" style="text;html=1;align=center;verticalAlign=middle;resizable=0;points=[];autosize=1;strokeColor=none;fillColor=none;" vertex="1" parent="zOYH1V0sEY3uDKR9j2VB-10">
          <mxGeometry x="-5" y="55" width="180" height="40" as="geometry" />
        </mxCell>
        <mxCell id="zOYH1V0sEY3uDKR9j2VB-12" style="edgeStyle=orthogonalEdgeStyle;rounded=0;orthogonalLoop=1;jettySize=auto;html=1;exitX=0.5;exitY=1;exitDx=0;exitDy=0;entryX=0.4;entryY=0.015;entryDx=0;entryDy=0;entryPerimeter=0;" edge="1" parent="1" source="zOYH1V0sEY3uDKR9j2VB-6" target="zOYH1V0sEY3uDKR9j2VB-10">
          <mxGeometry relative="1" as="geometry" />
        </mxCell>
        <mxCell id="zOYH1V0sEY3uDKR9j2VB-13" value="&lt;b&gt;&lt;font style=&quot;color: rgb(255, 0, 0);&quot;&gt;F3关联F2 可能存在多对多&lt;/font&gt;&lt;/b&gt;" style="edgeLabel;html=1;align=center;verticalAlign=middle;resizable=0;points=[];" vertex="1" connectable="0" parent="zOYH1V0sEY3uDKR9j2VB-12">
          <mxGeometry x="-0.1325" relative="1" as="geometry">
            <mxPoint as="offset" />
          </mxGeometry>
        </mxCell>
        <mxCell id="zOYH1V0sEY3uDKR9j2VB-14" value="ods_dp5040&#xa;公司信息表&#xa;sys_manager.company" style="swimlane;startSize=60;" vertex="1" parent="1">
          <mxGeometry x="600" y="40" width="200" height="200" as="geometry" />
        </mxCell>
        <mxCell id="zOYH1V0sEY3uDKR9j2VB-15" value="id 主键 F1" style="text;html=1;align=center;verticalAlign=middle;resizable=0;points=[];autosize=1;strokeColor=none;fillColor=none;" vertex="1" parent="1">
          <mxGeometry x="650" y="108" width="80" height="30" as="geometry" />
        </mxCell>
        <mxCell id="zOYH1V0sEY3uDKR9j2VB-23" style="edgeStyle=orthogonalEdgeStyle;rounded=0;orthogonalLoop=1;jettySize=auto;html=1;exitX=0.75;exitY=0;exitDx=0;exitDy=0;" edge="1" parent="1" source="zOYH1V0sEY3uDKR9j2VB-18">
          <mxGeometry relative="1" as="geometry">
            <mxPoint x="610" y="480" as="targetPoint" />
          </mxGeometry>
        </mxCell>
        <mxCell id="zOYH1V0sEY3uDKR9j2VB-24" value="&lt;b&gt;&lt;font style=&quot;color: rgb(255, 0, 0);&quot;&gt;F2关联F1 多对一&lt;/font&gt;&lt;/b&gt;" style="edgeLabel;html=1;align=center;verticalAlign=middle;resizable=0;points=[];" vertex="1" connectable="0" parent="zOYH1V0sEY3uDKR9j2VB-23">
          <mxGeometry x="-0.0109" y="1" relative="1" as="geometry">
            <mxPoint x="1" y="1" as="offset" />
          </mxGeometry>
        </mxCell>
        <mxCell id="zOYH1V0sEY3uDKR9j2VB-18" value="ods_dp5213&#xa;订单主表&#xa;sales.order_info" style="swimlane;startSize=50;" vertex="1" parent="1">
          <mxGeometry x="311" y="560" width="200" height="200" as="geometry" />
        </mxCell>
        <mxCell id="zOYH1V0sEY3uDKR9j2VB-19" value="id 主键 F1&lt;div&gt;business_id 业务id F2&lt;/div&gt;" style="text;html=1;align=center;verticalAlign=middle;resizable=0;points=[];autosize=1;strokeColor=none;fillColor=none;" vertex="1" parent="zOYH1V0sEY3uDKR9j2VB-18">
          <mxGeometry x="24" y="60" width="140" height="40" as="geometry" />
        </mxCell>
        <mxCell id="zOYH1V0sEY3uDKR9j2VB-20" style="edgeStyle=orthogonalEdgeStyle;rounded=0;orthogonalLoop=1;jettySize=auto;html=1;exitX=0.5;exitY=1;exitDx=0;exitDy=0;" edge="1" parent="1" source="_CwgOIHjb96wmUApnjY6-1">
          <mxGeometry relative="1" as="geometry">
            <mxPoint x="414" y="560" as="targetPoint" />
            <Array as="points">
              <mxPoint x="414" y="550" />
              <mxPoint x="414" y="550" />
            </Array>
          </mxGeometry>
        </mxCell>
        <mxCell id="zOYH1V0sEY3uDKR9j2VB-21" value="&lt;b&gt;&lt;font style=&quot;color: rgb(255, 0, 0);&quot;&gt;F4关联F1 多对一&lt;/font&gt;&lt;/b&gt;" style="edgeLabel;html=1;align=center;verticalAlign=middle;resizable=0;points=[];" vertex="1" connectable="0" parent="zOYH1V0sEY3uDKR9j2VB-20">
          <mxGeometry x="-0.1736" y="-2" relative="1" as="geometry">
            <mxPoint x="-2" y="-7" as="offset" />
          </mxGeometry>
        </mxCell>
        <mxCell id="zOYH1V0sEY3uDKR9j2VB-31" style="edgeStyle=orthogonalEdgeStyle;rounded=0;orthogonalLoop=1;jettySize=auto;html=1;exitX=1;exitY=0.5;exitDx=0;exitDy=0;entryX=0;entryY=0;entryDx=0;entryDy=0;" edge="1" parent="1" source="zOYH1V0sEY3uDKR9j2VB-26" target="zOYH1V0sEY3uDKR9j2VB-6">
          <mxGeometry relative="1" as="geometry" />
        </mxCell>
        <mxCell id="zOYH1V0sEY3uDKR9j2VB-32" value="&lt;b&gt;&lt;font style=&quot;color: rgb(255, 0, 0);&quot;&gt;F3关联F1 多对一&lt;/font&gt;&lt;/b&gt;" style="edgeLabel;html=1;align=center;verticalAlign=middle;resizable=0;points=[];" vertex="1" connectable="0" parent="zOYH1V0sEY3uDKR9j2VB-31">
          <mxGeometry x="-0.678" relative="1" as="geometry">
            <mxPoint as="offset" />
          </mxGeometry>
        </mxCell>
        <mxCell id="zOYH1V0sEY3uDKR9j2VB-26" value="ods_dp5214&#xa;补充协议表&#xa;sales.supplement_agreement" style="swimlane;startSize=47;" vertex="1" parent="1">
          <mxGeometry x="291" y="10" width="200" height="200" as="geometry" />
        </mxCell>
        <mxCell id="zOYH1V0sEY3uDKR9j2VB-27" value="id 主键 F1&lt;div&gt;&lt;div&gt;business_id 业务id F3&lt;/div&gt;&lt;/div&gt;" style="text;html=1;align=center;verticalAlign=middle;resizable=0;points=[];autosize=1;strokeColor=none;fillColor=none;" vertex="1" parent="1">
          <mxGeometry x="330" y="83" width="140" height="40" as="geometry" />
        </mxCell>
        <mxCell id="zOYH1V0sEY3uDKR9j2VB-40" style="edgeStyle=orthogonalEdgeStyle;rounded=0;orthogonalLoop=1;jettySize=auto;html=1;exitX=1;exitY=1;exitDx=0;exitDy=0;entryX=0;entryY=1;entryDx=0;entryDy=0;" edge="1" parent="1" source="zOYH1V0sEY3uDKR9j2VB-36" target="zOYH1V0sEY3uDKR9j2VB-6">
          <mxGeometry relative="1" as="geometry" />
        </mxCell>
        <mxCell id="zOYH1V0sEY3uDKR9j2VB-41" value="&lt;b&gt;&lt;font style=&quot;color: rgb(255, 0, 0);&quot;&gt;F2关联F1 多对一&lt;/font&gt;&lt;/b&gt;" style="edgeLabel;html=1;align=center;verticalAlign=middle;resizable=0;points=[];" vertex="1" connectable="0" parent="zOYH1V0sEY3uDKR9j2VB-40">
          <mxGeometry x="-0.4925" relative="1" as="geometry">
            <mxPoint as="offset" />
          </mxGeometry>
        </mxCell>
        <mxCell id="zOYH1V0sEY3uDKR9j2VB-36" value="ods_dp5215&#xa;提名信 &#xa;sales.nomination_letter" style="swimlane;startSize=50;" vertex="1" parent="1">
          <mxGeometry x="30" y="550" width="200" height="200" as="geometry" />
        </mxCell>
        <mxCell id="zOYH1V0sEY3uDKR9j2VB-37" value="id 主键 F1&lt;div&gt;business_id 业务id F2&lt;/div&gt;" style="text;html=1;align=center;verticalAlign=middle;resizable=0;points=[];autosize=1;strokeColor=none;fillColor=none;" vertex="1" parent="zOYH1V0sEY3uDKR9j2VB-36">
          <mxGeometry x="20" y="65" width="140" height="40" as="geometry" />
        </mxCell>
        <mxCell id="zOYH1V0sEY3uDKR9j2VB-42" value="ods_dp5216&#xa;价格协议&#xa;sales.price_protocol" style="swimlane;startSize=57;" vertex="1" parent="1">
          <mxGeometry x="40" y="23" width="200" height="200" as="geometry" />
        </mxCell>
        <mxCell id="zOYH1V0sEY3uDKR9j2VB-43" value="id 主键 F1&lt;div&gt;business_id 业务id F2&lt;/div&gt;" style="text;html=1;align=center;verticalAlign=middle;resizable=0;points=[];autosize=1;strokeColor=none;fillColor=none;" vertex="1" parent="1">
          <mxGeometry x="50" y="93" width="140" height="40" as="geometry" />
        </mxCell>
        <mxCell id="zOYH1V0sEY3uDKR9j2VB-46" style="edgeStyle=orthogonalEdgeStyle;rounded=0;orthogonalLoop=1;jettySize=auto;html=1;exitX=0.5;exitY=0;exitDx=0;exitDy=0;entryX=0.05;entryY=0;entryDx=0;entryDy=0;entryPerimeter=0;" edge="1" parent="1" source="zOYH1V0sEY3uDKR9j2VB-42" target="zOYH1V0sEY3uDKR9j2VB-6">
          <mxGeometry relative="1" as="geometry">
            <Array as="points">
              <mxPoint x="140" y="-10" />
              <mxPoint x="600" y="-10" />
            </Array>
          </mxGeometry>
        </mxCell>
        <mxCell id="zOYH1V0sEY3uDKR9j2VB-47" value="&lt;b&gt;&lt;font style=&quot;color: rgb(255, 0, 0);&quot;&gt;F2关联F1 多对一&lt;/font&gt;&lt;/b&gt;" style="edgeLabel;html=1;align=center;verticalAlign=middle;resizable=0;points=[];" vertex="1" connectable="0" parent="zOYH1V0sEY3uDKR9j2VB-46">
          <mxGeometry x="-0.8494" y="-1" relative="1" as="geometry">
            <mxPoint as="offset" />
          </mxGeometry>
        </mxCell>
        <mxCell id="zOYH1V0sEY3uDKR9j2VB-48" value="&lt;b&gt;&lt;font style=&quot;color: rgb(255, 0, 0);&quot;&gt;注：5209关联5213、5214、5215、5216时，只会和其中的一张表关联上，目前从数据上看&lt;/font&gt;&lt;/b&gt;" style="rounded=0;whiteSpace=wrap;html=1;" vertex="1" parent="1">
          <mxGeometry x="230" y="820" width="250" height="80" as="geometry" />
        </mxCell>
      </root>
    </mxGraphModel>
  </diagram>
</mxfile>
